<svg version="1.1" id="group" xmlns="http://www.w3.org/2000/svg" xmlns:xlink="http://www.w3.org/1999/xlink" x="0px" y="0px" viewBox="0 0 138 33" enable-background="new 0 0 138 33" xml:space="preserve">

	<path fill="#FCFCFC" d="M25,1.1l-0.8,1.1c5.1,2.1,7.1,5.9,7.1,9.9c0,2-0.5,3.9-1.6,3.9H16.4c-1.8,0-2.3-0.6-1.5-2.3
        c1.5-2.9,5.8-8.4,8.5-11.7c0.4-0.5,0.7-1.2-0.7-1.6c-1.4-0.4-3.8-0.5-5.7-0.5C7-0.1,0,5.3,0,12.3c0,6.4,6,12.4,16.9,12.4
        c4.8,0,10.7-1.4,14.1-5.1h-2.9c-3.3,2.9-7.5,3.6-11.2,3.6c-8.8,0-14.4-4.6-14.4-10.9c0-5.8,6.3-11,14.2-11c1,0,1.3,0.2,0.3,1.5
        c-2,2.5-5.7,7.5-7.4,10.4c-1.8,3.1,0,5.7,4.1,5.7h16.6c1,0,1.6-0.6,2.2-1.6c0.5-0.8,1.2-2.6,1.2-4.9C33.9,7.6,30.4,3.2,25,1.1"></path>

	<path fill="#FCFCFC" d="M133.4,11.4h-11.3c0.4-1.4,1.5-2.4,3.6-2.4h10.8V6.5h-11.5c-6.5,0-8.1,4.6-8.1,7.3h14
        c1.9,0,1.9,2.6,0.1,2.6c-1.9,0-15.4,0-15.4,0V6.5h-4.6v9.9h-7.7c-2.1,0-2.9-1-2.9-2.5c0-1.8,0-7.3,0-7.3h-7.4l-6.7,4.2l-5.7-4.2
        H63.9c-4.8,0-8.2,2.8-8.6,6.3h3.1c-1.3,0.8-2.2,2.1-2.7,3.6H46c-1.8,0-2.7-1-2.7-2.8V6.5h-4.7v6.1c0,3.8,2.1,6.3,6.8,6.3H78l6.7-4.2
        l5.8,4.2h6.9l-8.9-6.5l7.3-4.6v6.9c0,2.1,2.8,4.2,5.3,4.2h32.5C139.1,18.9,139.1,11.4,133.4,11.4 M77.1,16.4H61.3
        c0.2-1.3,0.8-2.6,3-2.6h9.8v-2.4h-13c0.2-1,1.2-2.4,3.6-2.4H75V7.6l7.4,5.4L77.1,16.4z"></path>

	<g class="nav__logoSubTitle">
		<polygon fill="#FCFCFC" points="38.8,32.2 38.8,26.7 41.9,26.7 41.9,27.4 39.6,27.4 39.6,29.2 41.9,29.2 41.9,29.9 39.6,29.9 
            39.6,31.5 42,31.5 42,32.2   "></polygon>
		<path fill="#FCFCFC" d="M47.4,32.2l-1.2-1.9c-0.1-0.1-0.2-0.4-0.2-0.4s-0.1,0.2-0.2,0.4l-1.2,1.9h-0.9l1.9-2.9l-1.7-2.6h0.9l1,1.6
            c0.1,0.1,0.2,0.3,0.2,0.3s0.1-0.2,0.2-0.3l1.1-1.6h0.9l-1.7,2.5l1.9,2.9H47.4z"></path>
		<path fill="#FCFCFC" d="M52,30h-1v2.2h-0.7v-5.5h1.6c1.1,0,1.8,0.7,1.8,1.7C53.6,29.3,52.9,30,52,30 M51.7,27.4H51v1.9h0.8
            c0.6,0,1.1-0.4,1.1-1C52.9,27.7,52.4,27.4,51.7,27.4"></path>
		<polygon fill="#FCFCFC" points="55.6,32.2 55.6,26.7 58.7,26.7 58.7,27.4 56.4,27.4 56.4,29.2 58.7,29.2 58.7,29.9 56.4,29.9 
            56.4,31.5 58.9,31.5 58.9,32.2   "></polygon>
		<path fill="#FCFCFC" d="M64.3,32.2L62,29.6v2.6h-0.7v-5.5h1.8c1,0,1.7,0.7,1.7,1.6c0,0.9-0.7,1.6-1.6,1.6l2,2.3H64.3z M62.9,27.4
            H62v1.9h0.9c0.7,0,1.1-0.4,1.1-1C64,27.9,63.6,27.4,62.9,27.4"></path>
		<rect x="67.3" y="26.7" fill="#FCFCFC" width="0.7" height="5.5"></rect>
		<polygon fill="#FCFCFC" points="70.7,32.2 70.7,26.7 73.8,26.7 73.8,27.4 71.4,27.4 71.4,29.2 73.7,29.2 73.7,29.9 71.4,29.9 
            71.4,31.5 73.9,31.5 73.9,32.2   "></polygon>
		<path fill="#FCFCFC" d="M80,32.2l-2.9-4c0,0-0.1-0.1-0.1-0.1s0,0.1,0,0.2v3.9h-0.8v-5.5H77l2.8,3.9c0,0.1,0.1,0.2,0.1,0.2
            s0-0.1,0-0.2v-3.9h0.7v5.5H80z"></path>
		<path fill="#FCFCFC" d="M85.3,32.3c-1.3,0-2.7-1.1-2.7-2.8c0-1.6,1.1-2.8,2.7-2.8c1,0,1.6,0.3,2,0.9L86.8,28
            c-0.4-0.4-0.9-0.6-1.5-0.6c-1.1,0-1.9,0.8-1.9,2.1c0,1.4,1.1,2.1,1.9,2.1c0.5,0,1.1-0.2,1.6-0.8l0.5,0.5
            C87.1,31.8,86.3,32.3,85.3,32.3"></path>
		<polygon fill="#FCFCFC" points="89.4,32.2 89.4,26.7 92.5,26.7 92.5,27.4 90.2,27.4 90.2,29.2 92.4,29.2 92.4,29.9 90.2,29.9 
            90.2,31.5 92.6,31.5 92.6,32.2   "></polygon>
		<path fill="#FCFCFC" d="M100.8,32.2l-0.7-1.8h-1.7l-0.7,1.8H97l2.1-5.5h0.5l2.1,5.5H100.8z M99.3,28.2c0-0.1,0-0.1,0-0.1
            S99.3,28.1,99.3,28.2l-0.7,1.5h1.2L99.3,28.2z"></path>
		<path fill="#FCFCFC" d="M108.1,32.2v-4c0-0.1,0-0.2,0-0.2s0,0.1-0.1,0.1l-1.7,2.3H106l-1.7-2.3c0,0-0.1-0.1-0.1-0.1s0,0.1,0,0.2v4
            h-0.7v-5.5h0.6l2.1,2.7l2-2.7h0.7v5.5H108.1z"></path>
		<path fill="#FCFCFC" d="M114.4,32.2l-0.7-1.8H112l-0.7,1.8h-0.8l2.1-5.5h0.5l2.1,5.5H114.4z M112.9,28.2c0-0.1,0-0.1,0-0.1
            S112.9,28.1,112.9,28.2l-0.7,1.5h1.2L112.9,28.2z"></path>
		<path fill="#FCFCFC" d="M117.9,31.3c0,0.1-0.1,0.1-0.1,0.1s0.1,0,0.2,0h2.7v0.7h-4.2l2.9-4.6c0-0.1,0.1-0.1,0.1-0.1s-0.1,0-0.2,0
            H117v-0.7h3.8L117.9,31.3z"></path>
		<rect x="122.8" y="26.7" fill="#FCFCFC" width="0.7" height="5.5"></rect>
		<path fill="#FCFCFC" d="M129.9,32.2l-2.9-4c0,0-0.1-0.1-0.1-0.1s0,0.1,0,0.2v3.9h-0.7v-5.5h0.6l2.8,3.9c0,0.1,0.1,0.2,0.1,0.2
            s0-0.1,0-0.2v-3.9h0.7v5.5H129.9z"></path>
		<path fill="#FCFCFC" d="M135.1,32.3c-1.4,0-2.8-1.1-2.8-2.8s1.3-2.8,2.8-2.8c0.9,0,1.5,0.3,2,0.7l-0.5,0.6
            c-0.5-0.4-0.9-0.6-1.6-0.6c-1.1,0-2,0.8-2,2.1c0,1.1,0.9,2.1,2,2.1c0.8,0,1.4-0.4,1.6-1.1H135v-0.7h2.5
            C137.6,31.2,136.4,32.3,135.1,32.3"></path>
	</g>
</svg>
